<svg xmlns="http://www.w3.org/2000/svg" width="1600" height="1600" viewBox="0 0 1600 1600" version="1.1">
	<path d="M 144.500 1.106 C 123.847 3.274, 107.478 8.058, 88.500 17.473 C 58.130 32.541, 32.504 58.173, 17.487 88.500 C 7.681 108.303, 3.308 123.563, 1.049 145.856 C -0.421 160.363, -0.421 1439.637, 1.049 1454.144 C 3.308 1476.437, 7.681 1491.697, 17.487 1511.500 C 32.510 1541.841, 58.161 1567.491, 88.500 1582.514 C 108.303 1592.319, 123.564 1596.692, 145.856 1598.951 C 160.363 1600.421, 1439.637 1600.421, 1454.144 1598.951 C 1476.436 1596.692, 1491.697 1592.319, 1511.500 1582.514 C 1541.839 1567.491, 1567.490 1541.841, 1582.513 1511.500 C 1592.131 1492.078, 1597.160 1474.839, 1598.641 1456.216 C 1599.004 1451.660, 1599.683 1447.696, 1600.150 1447.407 C 1600.618 1447.118, 1601 1155.282, 1601 798.882 C 1601 440.499, 1600.618 151.118, 1600.145 151.410 C 1599.675 151.701, 1598.996 148.240, 1598.636 143.719 C 1597.160 125.162, 1592.119 107.899, 1582.513 88.500 C 1567.490 58.159, 1541.839 32.509, 1511.500 17.486 C 1491.697 7.681, 1476.436 3.308, 1454.144 1.049 C 1441.471 -0.235, 156.742 -0.179, 144.500 1.106 M 0.497 800 C 0.497 1156.675, 0.611 1302.588, 0.750 1124.250 C 0.889 945.913, 0.889 654.088, 0.750 475.750 C 0.611 297.413, 0.497 443.325, 0.497 800 M 1349.977 187.215 C 1346.389 188.472, 1341.214 190.947, 1338.477 192.716 C 1330.946 197.582, 393.002 1136.251, 389.503 1142.425 C 385.197 1150.021, 383.016 1158.461, 383.008 1167.568 C 382.989 1187.202, 393.109 1203.498, 410.750 1212.239 C 418.804 1216.230, 419.829 1216.480, 429.587 1216.841 C 442.080 1217.304, 450.401 1215.165, 459.542 1209.143 C 468.088 1203.513, 1404.671 266.325, 1408.497 259.575 C 1412.803 251.979, 1414.984 243.539, 1414.992 234.432 C 1415.011 214.839, 1404.885 198.500, 1387.335 189.803 C 1379.188 185.766, 1378.524 185.613, 1367.702 185.277 C 1358.035 184.977, 1355.606 185.242, 1349.977 187.215" stroke="none" fill="black" fill-rule="evenodd"/>
</svg>